# xmcd
#
# Track frame offsets: 
#        150
#        12212
#        21162
#        32247
#        42170
#        52327
#        62710
#        76187
#        89637
#        106502
#        116490
#        129892
#        142497
#        158557
#        171817
#        184212
#        195155
#        211485
#        227007
#        238555
#
# Disc length: 3337 seconds
#
# Revision: 2
# Processed by: cddbd v1.5.2PL0 Copyright (c) Steve Scherf et al.
# Submitted via: ExactAudioCopyFreeDBPlugin 1.0
#
DISCID=090d0714
DTITLE=Various Artist - Country and Western Favourits
DYEAR=1900
DGENRE=Country
TTITLE0=Kenny Rogers - Me And Bobby Mc Ghee
TTITLE1=Carl Perkins - This Ole House
TTITLE2=Waylon Jennings - Dream Baby
TTITLE3=Hank Locklin - Please Help Me I'm Falling
TTITLE4=Porter Wagoner - Green Green Grass Of Home
TTITLE5=Don Gibson - Lomesome Number One
TTITLE6=George Jones - Almost Persuaded
TTITLE7=Don Williams - Where Do I Go From Here?
TTITLE8=Ferlin Husky - For The Good Times
TTITLE9=Willy Nelson - Broken Promises
TTITLE10=Lynn Anderson - Rose Garden
TTITLE11=Wanda Jackson - Crazy
TTITLE12=Anna Murray - Both Sides Now
TTITLE13=Dottie West - D.I.V.O.R.C.E.
TTITLE14=Patsy Cline - A Poor Man's Roses
TTITLE15=Donna Fargo - Wishful Thinking
TTITLE16=Billy Jo Spears - Blanket On The Ground
TTITLE17=Jo Anna Houston - Always On My Mind
TTITLE18=Dolly Parton - Letter To Heaven
TTITLE19=Skeeter Davis - I Can't Help You (I'm Falling Too)
EXTD=
EXTT0=
EXTT1=
EXTT2=
EXTT3=
EXTT4=
EXTT5=
EXTT6=
EXTT7=
EXTT8=
EXTT9=
EXTT10=
EXTT11=
EXTT12=
EXTT13=
EXTT14=
EXTT15=
EXTT16=
EXTT17=
EXTT18=
EXTT19=
PLAYORDER=
